<svg width="17" height="16" viewBox="0 0 17 16" fill="none" xmlns="http://www.w3.org/2000/svg">
<path d="M2.75 2H14.75V14H2.75V2ZM5.90333 12.0267C6.17 12.5933 6.69667 13.06 7.59667 13.06C8.59667 13.06 9.28333 12.5267 9.28333 11.36V7.50667H8.15V11.3333C8.15 11.9067 7.91667 12.0533 7.55 12.0533C7.16333 12.0533 7.00333 11.7867 6.82333 11.4733L5.90333 12.0267ZM9.89 11.9067C10.2233 12.56 10.8967 13.06 11.95 13.06C13.0167 13.06 13.8167 12.5067 13.8167 11.4867C13.8167 10.5467 13.2767 10.1267 12.3167 9.71333L12.0367 9.59333C11.55 9.38667 11.3433 9.24667 11.3433 8.91333C11.3433 8.64 11.55 8.42667 11.8833 8.42667C12.2033 8.42667 12.4167 8.56667 12.61 8.91333L13.4833 8.33333C13.1167 7.69333 12.5967 7.44667 11.8833 7.44667C10.8767 7.44667 10.23 8.08667 10.23 8.93333C10.23 9.85333 10.77 10.2867 11.5833 10.6333L11.8633 10.7533C12.3833 10.98 12.69 11.12 12.69 11.5067C12.69 11.8267 12.39 12.06 11.9233 12.06C11.37 12.06 11.05 11.7733 10.81 11.3733L9.89 11.9067Z" fill="#FFCB6B"/>
</svg>
