<svg width="17" height="17" viewBox="0 0 17 17" fill="none" xmlns="http://www.w3.org/2000/svg">
<path d="M9.4371 11.8259V1.05896H7.08334V4.58912C6.12747 4.40995 5.28445 4.47998 4.54878 4.7252C2.91979 5.26955 2.00626 6.7126 2.08845 8.61511C2.12753 9.468 2.29864 10.0555 2.66783 10.6092C3.19466 11.4029 4.04755 11.8744 5.29523 12.0712C6.2128 12.2167 8.10418 12.1183 9.4371 11.8259ZM7.08334 10.2212C5.86807 10.3579 5.31275 10.1754 4.92201 9.74421C4.61615 9.41006 4.45985 8.93309 4.45985 8.34697C4.45985 7.30814 4.95434 6.6048 5.82475 6.40539C6.07672 6.3488 6.78724 6.35281 7.08334 6.47007V10.2212ZM10.8249 3.43979H13.1721L13.1721 1.05898H10.8249V3.43979ZM10.6996 15.2901C12.0793 14.5759 12.8646 13.8023 13.1006 11.6737C13.1249 11.4392 13.1828 4.65109 13.1828 4.65109H10.8249L10.8249 7.36001C10.8249 11.3887 10.7751 11.9149 10.3372 12.7677C10.0636 13.3013 9.55836 13.7459 8.80113 14.1259C8.60845 14.2216 8.54917 14.2647 8.58824 14.2863C8.61654 14.3038 10.6996 15.2901 10.6996 15.2901Z" fill="#2AA473"/>
</svg>
