<svg width="17" height="17" viewBox="0 0 17 17" fill="none" xmlns="http://www.w3.org/2000/svg">
<g clip-path="url(#clip0_101_1046)">
<path fill-rule="evenodd" clip-rule="evenodd" d="M7.36833 2.26529L4.35632 0.533545C4.2788 0.488818 4.18347 0.488818 4.10594 0.533545L1.09394 2.26529C1.0098 2.31184 0.969854 2.38538 0.96875 2.48262V12.7848C0.96875 12.8742 1.01699 12.9574 1.09451 13.0021L7.1191 16.4656C7.20617 16.5118 7.27933 16.5109 7.3689 16.4662L13.3935 13.0027C13.4716 12.958 13.5192 12.8754 13.5192 12.7854V9.49619L16.4055 7.83669C16.4836 7.79197 16.5312 7.70939 16.5312 7.61937V4.18512C16.5312 4.1231 16.494 4.01904 16.4032 3.96779L13.3912 2.23605C13.3137 2.19132 13.2183 2.19132 13.1408 2.23605L10.1288 3.96779C10.0467 4.01457 10.0036 4.09089 10.0036 4.18512V7.47429L7.49351 8.9176V2.48262C7.49351 2.40699 7.44913 2.30858 7.36833 2.26529ZM7.23969 12.4963L4.73418 11.0806L10.2523 7.90837L12.7601 9.34996L7.23969 12.4963ZM13.0139 6.06194V8.9176L10.5032 7.47429V4.61863L13.0139 6.06194ZM13.2648 2.74238L15.7738 4.18512L13.2648 5.62786L10.7559 4.18512L13.2648 2.74238ZM4.47921 10.6493V4.35944L6.98988 2.91613V9.20546L4.47921 10.6493ZM4.22826 1.04045L6.73721 2.48319L4.22826 3.92593L1.71931 2.48319L4.22826 1.04045ZM7.49121 15.8148V12.9304L13.0139 9.78233V12.6397L7.49121 15.8148ZM13.5158 8.9176V6.06194L16.0265 4.61863V7.47429L13.5158 8.9176ZM6.99103 12.9304L6.99103 15.8142L1.46663 12.6397V2.91613L3.9773 4.35944L3.9773 11.2275L6.99103 12.9304Z" fill="#F52D21"/>
</g>
<defs>
<clipPath id="clip0_101_1046">
<rect width="16" height="16" fill="white" transform="translate(0.75 0.5)"/>
</clipPath>
</defs>
</svg>
