<svg width="17" height="17" viewBox="0 0 17 17" fill="none" xmlns="http://www.w3.org/2000/svg">
<g clip-path="url(#clip0_158_80)">
<path d="M6.07301 10.823C6.05628 10.593 5.97363 10.3727 5.83495 10.1884C5.69626 10.0041 5.50741 9.86373 5.29101 9.784C5.09501 9.712 4.92601 9.58 4.73201 9.5C4.51419 9.40087 4.2888 9.31928 4.05801 9.256C3.97487 9.23556 3.8874 9.24185 3.80805 9.27399C3.72869 9.30612 3.66149 9.36247 3.61601 9.435C3.58015 9.49607 3.56607 9.5675 3.57606 9.63761C3.58605 9.70772 3.61952 9.77237 3.67101 9.821C3.76401 9.952 3.87101 10.077 3.97101 10.199C4.14301 10.399 4.32601 10.599 4.49401 10.806C4.58205 10.8956 4.65157 11.0017 4.69859 11.1182C4.7456 11.2347 4.76919 11.3594 4.76801 11.485C4.7141 12.0448 4.4422 12.561 4.01101 12.922C3.95609 12.9661 3.88742 12.9895 3.81701 12.988C3.54462 12.9652 3.28719 12.8538 3.08401 12.671C3.03015 12.6344 2.98752 12.5836 2.96088 12.5242C2.93424 12.4649 2.92464 12.3992 2.93314 12.3347C2.94165 12.2702 2.96793 12.2093 3.00906 12.1588C3.05018 12.1084 3.10452 12.0703 3.16601 12.049C3.23513 12.0144 3.30194 11.9753 3.36601 11.932C3.44854 11.8776 3.508 11.7946 3.53293 11.6989C3.55786 11.6033 3.54648 11.5018 3.50101 11.414C3.46142 11.3216 3.40476 11.2374 3.33401 11.166C2.97701 10.853 2.62601 10.529 2.24401 10.244C1.80694 9.93187 1.44657 9.52444 1.19016 9.05252C0.93376 8.58059 0.788034 8.05654 0.764007 7.52C0.674341 6.30785 0.985656 5.09984 1.65001 4.082C1.88074 3.65882 2.23522 3.3162 2.66601 3.1C2.98578 2.97707 3.31481 2.87977 3.65001 2.809C4.55574 2.53159 5.50937 2.4461 6.45001 2.558C6.83005 2.59066 7.19261 2.73229 7.49415 2.9659C7.7957 3.19951 8.02342 3.51517 8.15001 3.875C8.32414 4.37956 8.38158 4.91704 8.31801 5.447C8.25116 5.98176 8.02656 6.48449 7.67286 6.8911C7.31915 7.2977 6.85236 7.58975 6.33201 7.73C6.15811 7.80587 5.96255 7.81584 5.78183 7.75806C5.60112 7.70027 5.44762 7.57869 5.35001 7.416C5.15001 7.151 4.98601 6.863 4.80801 6.584C4.78201 6.543 4.76301 6.495 4.74101 6.45C4.71901 6.405 4.69601 6.364 4.67301 6.32C4.72041 6.7782 4.86972 7.21999 5.11001 7.613C5.17097 7.72261 5.25721 7.81609 5.36157 7.88566C5.46592 7.95523 5.58538 7.99889 5.71001 8.013C6.17535 8.0768 6.64928 8.01611 7.08352 7.83711C7.51777 7.6581 7.8968 7.36719 8.18201 6.994C8.49644 6.57947 8.71593 6.10092 8.82497 5.59219C8.93401 5.08346 8.92993 4.55698 8.81301 4.05C8.77501 3.84 8.71001 3.635 8.66401 3.427C8.65482 3.39792 8.65178 3.36724 8.65509 3.33692C8.65839 3.30659 8.66797 3.27729 8.6832 3.25087C8.69843 3.22444 8.719 3.20148 8.74358 3.18342C8.76816 3.16537 8.79623 3.15263 8.82601 3.146C8.88971 3.12686 8.95449 3.1115 9.02001 3.1C9.84313 2.92472 10.6881 2.87549 11.526 2.954C12.4714 3.02386 13.3866 3.31761 14.196 3.811C15.4027 4.57746 16.2848 5.76147 16.674 7.137C16.7272 7.34134 16.7527 7.55188 16.75 7.763C16.75 7.904 16.66 7.941 16.55 7.852C16.4283 7.75393 16.3142 7.64661 16.209 7.531C16.109 7.424 16.032 7.301 15.936 7.188C15.862 7.1 15.797 7.113 15.762 7.223C15.74 7.29 15.72 7.356 15.7 7.423C15.4963 8.18583 15.1062 8.88612 14.565 9.461C14.4809 9.54584 14.4256 9.65499 14.407 9.773C14.3761 10.072 14.3721 10.3732 14.395 10.673C14.457 11.315 14.553 11.954 14.628 12.595C14.6464 12.6694 14.6498 12.7466 14.6379 12.8223C14.6261 12.898 14.5992 12.9705 14.559 13.0357C14.5188 13.1009 14.466 13.1574 14.4036 13.2019C14.3413 13.2464 14.2707 13.2781 14.196 13.295C13.9458 13.3861 13.6844 13.4432 13.419 13.465C13.001 13.493 12.579 13.473 12.159 13.473C12.206 13.2653 12.1924 13.0484 12.1199 12.8481C12.0475 12.6478 11.9191 12.4725 11.75 12.343C11.835 12.008 11.934 11.69 11.993 11.365C12.0236 11.2329 12.0224 11.0954 11.9895 10.9638C11.9567 10.8322 11.8931 10.7103 11.804 10.608C11.7353 10.5111 11.6334 10.4428 11.5177 10.4159C11.402 10.389 11.2804 10.4054 11.176 10.462C10.8761 10.628 10.5431 10.7253 10.2011 10.7469C9.859 10.7685 9.5164 10.7139 9.19801 10.587C9.13724 10.5557 9.07088 10.5368 9.00276 10.5312C8.93464 10.5256 8.8661 10.5336 8.80106 10.5546C8.73601 10.5756 8.67576 10.6092 8.62376 10.6536C8.57175 10.6979 8.52902 10.7521 8.49801 10.813C8.31819 11.098 8.23345 11.4328 8.25601 11.769C8.28201 12.189 8.35601 12.604 8.41601 13.022C8.44801 13.256 8.41601 13.316 8.18001 13.376C7.64646 13.4958 7.0972 13.5296 6.55301 13.476C6.52687 13.4717 6.50112 13.4654 6.47601 13.457C6.52203 13.2381 6.4956 13.0102 6.40072 12.8076C6.30584 12.605 6.14764 12.4388 5.95001 12.334C6.15158 11.8579 6.19538 11.3298 6.07501 10.827L6.07301 10.823ZM2.83701 9.1C2.91947 9.02202 2.97719 8.92152 3.00301 8.811C3.01931 8.66862 2.99151 8.52466 2.92337 8.39859C2.85524 8.27251 2.75004 8.17038 2.62201 8.106C2.56925 8.07834 2.50866 8.06941 2.45016 8.08067C2.39166 8.09194 2.33872 8.12273 2.30001 8.168C2.08601 8.40533 1.87367 8.643 1.66301 8.881C1.62693 8.92264 1.59572 8.96827 1.57001 9.017C1.54724 9.0448 1.53278 9.07845 1.52828 9.1141C1.52378 9.14974 1.52942 9.18594 1.54457 9.21852C1.55971 9.2511 1.58373 9.27875 1.61388 9.29829C1.64403 9.31784 1.67908 9.32848 1.71501 9.329C1.82401 9.356 1.93701 9.361 2.05001 9.377C2.33543 9.3764 2.61259 9.28109 2.83801 9.106L2.83701 9.1ZM2.86101 6.5C2.85791 6.40855 2.81952 6.32186 2.75389 6.2581C2.68827 6.19434 2.6005 6.15846 2.50901 6.158C2.41483 6.15825 2.32452 6.19551 2.25755 6.26173C2.19058 6.32795 2.15232 6.41783 2.15101 6.512C2.15667 6.60369 2.19766 6.68961 2.26535 6.75171C2.33304 6.8138 2.42217 6.84724 2.51401 6.845C2.60587 6.84553 2.69419 6.80962 2.75961 6.74514C2.82503 6.68065 2.86221 6.59286 2.86301 6.501L2.86101 6.5Z" fill="#BB80B3"/>
</g>
<defs>
<clipPath id="clip0_158_80">
<rect width="16" height="16" fill="white" transform="translate(0.75 0.5)"/>
</clipPath>
</defs>
</svg>
