<svg width="17" height="17" viewBox="0 0 17 17" fill="none" xmlns="http://www.w3.org/2000/svg">
<path d="M8.699 1.5C5.145 1.5 5.367 3.049 5.367 3.049V4.654H8.763V5.136H4.024C4.024 5.136 1.75 4.877 1.75 8.482C1.75 12.087 3.735 11.959 3.735 11.959H4.919V10.286C4.90352 10.0233 4.94307 9.76029 5.03511 9.51377C5.12715 9.26724 5.26966 9.04266 5.4535 8.85439C5.63735 8.66612 5.85848 8.51832 6.10274 8.42044C6.34701 8.32256 6.60902 8.27677 6.872 8.286H10.237C10.4835 8.29694 10.7297 8.25734 10.9604 8.16965C11.1911 8.08195 11.4014 7.94801 11.5784 7.77605C11.7554 7.6041 11.8954 7.39776 11.9897 7.16972C12.0841 6.94168 12.1308 6.69676 12.127 6.45V3.368C12.127 3.368 12.414 1.5 8.699 1.5ZM6.829 2.579C6.95037 2.57841 7.06918 2.61385 7.17038 2.68085C7.27158 2.74784 7.35062 2.84337 7.39747 2.95533C7.44433 3.06729 7.4569 3.19063 7.43358 3.30974C7.41027 3.42885 7.35213 3.53835 7.26652 3.62438C7.18091 3.71041 7.07169 3.7691 6.9527 3.79299C6.83371 3.81689 6.7103 3.80493 6.59811 3.75862C6.48593 3.71231 6.39001 3.63375 6.32252 3.53287C6.25503 3.432 6.219 3.31337 6.219 3.192C6.21874 3.11168 6.23431 3.03209 6.26484 2.9578C6.29536 2.8835 6.34024 2.81595 6.3969 2.75902C6.45355 2.70208 6.52088 2.65688 6.59503 2.62599C6.66917 2.5951 6.74868 2.57913 6.829 2.579ZM8.802 15.5C12.356 15.5 12.134 13.951 12.134 13.951V12.346H8.738V11.864H13.477C13.477 11.864 15.75 12.123 15.75 8.518C15.75 4.913 13.765 5.041 13.765 5.041H12.582V6.714C12.5975 6.97669 12.5579 7.23971 12.4659 7.48623C12.3738 7.73276 12.2313 7.95734 12.0475 8.14561C11.8637 8.33388 11.6425 8.48168 11.3983 8.57956C11.154 8.67744 10.892 8.72323 10.629 8.714H7.264C7.01746 8.70306 6.77128 8.74266 6.5406 8.83035C6.30993 8.91805 6.09962 9.05199 5.9226 9.22395C5.74559 9.3959 5.60561 9.60224 5.51127 9.83028C5.41693 10.0583 5.37021 10.3032 5.374 10.55V13.637C5.374 13.637 5.087 15.5 8.802 15.5ZM10.672 14.421C10.5506 14.4216 10.4318 14.3861 10.3306 14.3192C10.2294 14.2522 10.1504 14.1566 10.1035 14.0447C10.0567 13.9327 10.0441 13.8094 10.0674 13.6903C10.0907 13.5712 10.1489 13.4616 10.2345 13.3756C10.3201 13.2896 10.4293 13.2309 10.5483 13.207C10.6673 13.1831 10.7907 13.1951 10.9029 13.2414C11.0151 13.2877 11.111 13.3663 11.1785 13.4671C11.246 13.568 11.282 13.6866 11.282 13.808C11.2823 13.8883 11.2667 13.9679 11.2362 14.0422C11.2056 14.1165 11.1608 14.184 11.1041 14.241C11.0474 14.2979 10.9801 14.3431 10.906 14.374C10.8318 14.4049 10.7523 14.4209 10.672 14.421Z" fill="#419B22"/>
</svg>
